<?xml version="1.0" encoding="UTF-8" standalone="no"?>
<!-- Creator: CorelDRAW -->

<svg
   xmlns:dc="http://purl.org/dc/elements/1.1/"
   xmlns:cc="http://creativecommons.org/ns#"
   xmlns:rdf="http://www.w3.org/1999/02/22-rdf-syntax-ns#"
   xmlns:svg="http://www.w3.org/2000/svg"
   xmlns="http://www.w3.org/2000/svg"
   xmlns:sodipodi="http://sodipodi.sourceforge.net/DTD/sodipodi-0.dtd"
   xmlns:inkscape="http://www.inkscape.org/namespaces/inkscape"
   xml:space="preserve"
   width="600px"
   height="600px"
   style="shape-rendering:geometricPrecision; text-rendering:geometricPrecision; image-rendering:optimizeQuality; fill-rule:evenodd; clip-rule:evenodd"
   viewBox="0 0 600 600"
   version="1.1"
   id="svg22"
   sodipodi:docname="project-logo.svg"
   inkscape:version="0.92.1 r15371"><metadata
     id="metadata26"><rdf:RDF><cc:Work
         rdf:about=""><dc:format>image/svg+xml</dc:format><dc:type
           rdf:resource="http://purl.org/dc/dcmitype/StillImage" /><dc:title></dc:title></cc:Work></rdf:RDF></metadata><sodipodi:namedview
     pagecolor="#ffffff"
     bordercolor="#666666"
     borderopacity="1"
     objecttolerance="10"
     gridtolerance="10"
     guidetolerance="10"
     inkscape:pageopacity="0"
     inkscape:pageshadow="2"
     inkscape:window-width="1920"
     inkscape:window-height="1043"
     id="namedview24"
     showgrid="false"
     inkscape:zoom="0.39333333"
     inkscape:cx="255.47068"
     inkscape:cy="360.21874"
     inkscape:window-x="0"
     inkscape:window-y="0"
     inkscape:window-maximized="1"
     inkscape:current-layer="svg22" /><defs
     id="defs4"><style
       type="text/css"
       id="style2"><![CDATA[
    .fil0 {fill:#1F1A17}
    .fil1 {fill:#7B0101}
    .fil2 {fill:#AD0101}
    .fil3 {fill:#FF0101}
   ]]></style></defs><g
     transform="matrix(0.95244949,0,0,0.94558967,16.913908,-23.86082)"
     style="clip-rule:evenodd;fill-rule:evenodd;image-rendering:optimizeQuality;shape-rendering:geometricPrecision;text-rendering:geometricPrecision"
     id="g4609"><g
       id="Livello_x0020_1-7"><metadata
         id="CorelCorpID_0Corel-Layer-5" /><g
         id="_76285576"><path
           inkscape:connector-curvature="0"
           d="m 454.456,66.0024 29.0616,13.7352 c 18.6972,1.0188 57.3036,4.7628 61.3032,29.5176 l 49.2468,23.3076 -45.4308,123.072 -420.779,183.377 L 30.6074,267.2308 5.933,141.9568 51.3878,130.9432 c 13.6584,-20.9256 49.0776,-23.8632 73.8708,-17.7456 l 45.7308,-11.106 C 183.8486,81.9544 219.0242,82.9528 236.891,86.2912 l 38.6448,-9.276 c 7.5312,-19.452 42.156,-17.292 58.704,-14.1864 l 30.9624,-7.4628 c 9.4848,-23.7228 83.9556,-16.6572 89.2536,10.6368 z"
           class="fil0"
           id="_75493720"
           style="fill:#1f1a17" /><polygon
           points="39.726,263.852 131.951,426.755 118.466,300.048 17.1312,149.132 "
           class="fil1"
           id="_75377024"
           style="fill:#7b0101" /><path
           inkscape:connector-curvature="0"
           d="m 357.937,134.944 -1.9704,13.41 -0.6456,-0.0708 -0.2844,5.0736 c 4.11,8.4372 4.8504,9.1848 12.9936,13.9668 4.5168,2.652 13.8228,6.4548 20.3112,6.9948 2.3616,-0.954 2.5212,-8.4612 3.018,-10.9524 0.7116,-3.5712 1.7724,-7.7964 2.0616,-11.2728 -11.2272,-0.2508 -34.0296,-10.836 -34.9248,-21.5904 z"
           class="fil1"
           id="_76285520"
           style="fill:#7b0101" /><path
           inkscape:connector-curvature="0"
           d="m 449.936,118.438 c -3.0864,4.9692 7.6464,13.5504 11.0412,15.6288 4.302,2.6328 14.526,5.9388 20.0736,7.2312 l 5.0796,-21.5892 c -7.7004,-1.794 -11.7492,-3.8304 -18.3384,-6.4272 -7.0944,-2.7948 -9.0312,-6.0864 -12.7764,-11.988 l -4.7304,18.51 z m 0.6348,-3.1752 -0.6348,1.2708 z m 1.9044,-7.62 -0.6348,1.2708 z m 0.6348,-3.174 -0.6348,1.2696 z"
           class="fil1"
           id="_77826296"
           style="fill:#7b0101" /><path
           inkscape:connector-curvature="0"
           d="m 243.562,187.652 c 0.2688,12.0744 18.1812,23.8848 29.2092,24.1296 l 1.9056,-23.4948 c -4.8396,-0.108 -13.7436,-4.2684 -17.2644,-6.2316 -6.9216,-3.858 -8.5488,-8.6388 -11.946,-10.9128 l -0.6348,-3.1752 z"
           class="fil1"
           id="_137696352"
           style="fill:#7b0101" /><path
           inkscape:connector-curvature="0"
           d="m 374.371,58.7484 -3.1752,19.05 c 0,10.8204 16.9656,16.284 27.3048,17.1444 2.8872,-1.1652 4.3584,-15.168 4.4448,-19.05 -0.5172,-0.36 -15.2388,-4.2504 -17.7048,-5.1552 -5.3148,-1.95 -10.8696,-5.5104 -10.8696,-11.9892 z m -1.9056,7.62 -0.6348,1.9044 z"
           class="fil1"
           id="_46662232"
           style="fill:#7b0101" /><path
           inkscape:connector-curvature="0"
           d="m 179.426,130.502 v 3.81 c 0,6.2364 13.5072,11.8956 19.6848,13.3356 h 1.2696 V 126.692 l -1.2696,-0.6348 c -4.0932,-0.9528 -9.0252,-2.364 -12.1752,-4.3344 -4.8024,-3.0036 -5.8788,-6.0708 -8.1444,-7.7304 l 0.6348,15.8748 z"
           class="fil1"
           id="_78641872"
           style="fill:#7b0101" /><path
           inkscape:connector-curvature="0"
           d="m 281.026,103.832 c 3.7476,7.0812 7.7088,11.2848 16.5108,13.3356 L 300.076,96.848 c -7.4772,-1.7424 -12.6792,-5.2836 -16.5096,-10.7952 z m 0.636,-7.62 -0.636,4.446 z m 0.6348,-9.5244 -0.6348,5.0796 z"
           class="fil1"
           id="_77331888"
           style="fill:#7b0101" /><path
           inkscape:connector-curvature="0"
           d="m 110.212,219.402 1.2696,15.876 c 1.6524,7.092 7.7688,15.552 14.6052,17.1444 l -1.2696,-23.4948 c -3.306,-2.214 -6.1668,-3.2688 -9.0504,-6.1908 -4.5432,-4.6032 -3.168,-4.7004 -6.1896,-9.0492 z"
           class="fil1"
           id="_137696640"
           style="fill:#7b0101" /><path
           inkscape:connector-curvature="0"
           d="m 58.776,164.792 c 2.1744,3.246 1.7304,4.626 4.698,8.6376 2.3628,3.1932 4.6308,3.5484 8.0028,5.3328 v -6.9852 l -2.598,-3.7692 0.6924,-10.836 -0.6348,-0.6348 c -6.6672,-3.528 -6.6336,-3.372 -11.43,-8.8896 l 2.5068,17.8332 z m 0,-2.5404 -0.6348,-1.9044 z m -1.2696,-8.2548 -0.6348,-2.5392 z"
           class="fil1"
           id="_78162008"
           style="fill:#7b0101" /><polygon
           points="118.466,300.048 131.951,426.755 541.048,248.47 582.016,137.488 "
           class="fil2"
           id="_76665864"
           style="fill:#ad0101" /><path
           inkscape:connector-curvature="0"
           d="m 124.817,228.928 1.2696,23.4948 c 2.5584,3.492 21.1752,7.62 27.9396,7.62 h 2.5404 c 22.9188,0 47.1276,-9.4512 51.4344,-27.9396 l -0.6348,-21.5904 c -1.3104,1.8864 -1.4772,4.1688 -2.9916,5.8992 -1.6716,1.9104 -2.442,2.6652 -4.1496,4.7388 -0.594,0.7212 -9.582,6.3564 -10.818,6.9624 -6.5916,3.2352 -19.3788,6.5292 -29.0304,6.5292 h -8.2548 c -13.74,0 -17.7996,-3.5004 -27.3048,-5.7144 z"
           class="fil2"
           id="_78258624-3"
           style="fill:#ad0101" /><path
           inkscape:connector-curvature="0"
           d="m 143.231,141.932 -0.6348,-4.4448 z m -1.2696,-1.9044 c -3.7512,5.3976 -1.2876,4.3116 -7.14,9.3696 -2.9388,2.5416 -6.3936,4.2132 -9.9984,5.8764 -6.0792,2.8056 -17.6256,5.0736 -26.676,5.0736 H 86.0822 c -7.7808,0 -11.1156,-3.0552 -16.5108,-3.1752 l -0.6348,-0.6348 0.6348,0.6348 -0.6924,10.836 2.598,3.7692 v 6.9852 c 6.4044,3.3888 18.0996,5.0796 27.9396,5.0796 h 2.5404 c 5.2044,0 20.7204,-4.3368 24.9732,-6.1404 8.7708,-3.7224 11.4708,-6.966 16.3008,-14.1792 v -16.5108 4.446 l -0.48,-0.008 z"
           class="fil2"
           id="_77500776-5"
           style="fill:#ad0101" /><path
           inkscape:connector-curvature="0"
           d="m 274.676,188.287 -1.9056,23.4948 16.4472,2.994 9.588,-0.4536 c 7.2756,0 14.9832,-3.354 20.7228,-5.3124 5.3844,-1.836 10.7148,-8.2068 13.5672,-12.468 l 1.2696,-12.0648 -0.5076,-4.4448 0.5076,-4.4448 c -4.098,3.0024 -5.3844,8.2152 -13.596,10.5336 -4.728,1.3344 -13.992,4.7064 -19.4232,4.7064 h -5.7156 z"
           class="fil2"
           id="_78207744-6"
           style="fill:#ad0101" /><path
           inkscape:connector-curvature="0"
           d="m 199.111,126.058 1.2696,0.6348 v 20.9556 h -1.2696 l 17.0892,2.9628 6.4056,-0.4236 c 6.3576,0 17.0664,-2.4396 21.396,-4.6392 8.3436,-4.2396 8.7204,-5.2524 12.894,-13.14 l -1.1016,0.012 1.1016,-19.062 c -4.3308,6.8256 -4.1652,6.5724 -11.8308,10.3932 -2.5188,1.2552 -14.0856,4.212 -17.3796,4.212 H 214.351 Z m 57.7848,3.81 0.6348,-6.9852 z"
           class="fil2"
           id="_75510104-2"
           style="fill:#ad0101" /><path
           inkscape:connector-curvature="0"
           d="m 300.076,96.8484 -2.5392,20.3196 c 4.9464,3.4368 21.396,4.4448 30.48,4.4448 2.7252,0 12.7656,-2.682 15.4788,-3.5712 7.704,-2.5212 6.8244,-4.9344 11.1912,-7.8588 l 1.9044,-14.6052 -0.6348,-4.4448 c -2.3544,1.7244 -2.7384,2.928 -6.3528,5.0772 -1.6032,0.9528 -5.7204,1.9668 -8.028,2.7672 -2.4948,0.864 -16.7784,1.6812 -20.544,1.6812 -5.4096,0 -17.4948,-2.1504 -20.9556,-3.81 z"
           class="fil2"
           id="_75139072-9"
           style="fill:#ad0101" /><path
           inkscape:connector-curvature="0"
           d="m 393.421,152.093 c -0.2892,3.4764 -1.35,7.7016 -2.0616,11.2728 -0.4968,2.4912 -0.6564,9.9984 -3.018,10.9524 4.8168,3.0564 22.746,2.0616 29.7996,1.2252 3.2328,-0.384 10.4412,-3.0504 12.87,-4.2756 4.8768,-2.4612 5.3304,-4.5036 7.4952,-9.0156 l 0.6036,-3.816 1.8636,-8.2596 0.6204,-2.5176 0.7224,-3.186 c -7.1916,3.8052 -11.4768,8.8896 -23.4948,8.8896 h -10.7952 z"
           class="fil2"
           id="_77970704"
           style="fill:#ad0101" /><path
           inkscape:connector-curvature="0"
           d="m 486.131,119.708 -5.0796,21.5892 c 13.2456,3.0864 40.5288,5.5164 47.6244,-5.0796 l 6.9852,-20.9556 c -5.106,2.7024 -10.6644,6.9852 -19.05,6.9852 h -6.9852 z m 50.1648,-3.81 -0.6348,0.6348 z m -0.6348,1.9044 -0.6348,0.6348 z m -1.2696,3.1752 0.6348,-1.2696 z m -1.9056,6.9852 -0.6348,0.6348 z m -0.6348,1.9044 -0.6348,0.6348 z m -1.2696,3.1752 0.6348,-1.2696 z"
           class="fil2"
           id="_78794168"
           style="fill:#ad0101" /><path
           inkscape:connector-curvature="0"
           d="m 402.946,75.8928 c -0.0864,3.882 -1.5576,17.8848 -4.4448,19.05 4.9788,3.1584 21.372,1.3392 27.5724,0.2664 9.27,-1.6032 15.4416,-5.25 16.2432,-14.8716 l 1.2696,-10.7952 c -6.0528,4.0536 -13.4964,7.5732 -24.1296,6.9852 z m 40.6404,-2.5404 1.2696,-1.2696 V 71.448 Z m -1.2696,5.7156 0.6348,-1.2696 z"
           class="fil2"
           id="_77969560"
           style="fill:#ad0101" /><path
           inkscape:connector-curvature="0"
           d="m 208.001,232.103 c -4.3068,18.4884 -28.5156,27.9396 -51.4344,27.9396 h -2.5404 c -6.7644,0 -25.3812,-4.128 -27.9396,-7.62 -6.8364,-1.5924 -12.9528,-10.0524 -14.6052,-17.1444 l -0.6348,-0.636 -0.6348,-3.174 -1.2696,-12.066 -0.636,-6.984 v -2.5404 c 0,-19.3944 28.8432,-30.9192 49.53,-30.9192 5.2224,0.2772 10.5768,0.2532 15.7596,0.9204 11.4168,1.47 21.2016,6.1464 27.8916,11.7468 4.8384,4.0512 7.1664,8.2932 7.1496,16.9812 -0.0108,5.0676 1.3308,20.3964 -0.636,23.496 z m -98.424,-18.4152 c 3.0216,4.3488 1.6464,4.446 6.1896,9.0492 2.8836,2.922 5.7444,3.9768 9.0504,6.1908 9.5052,2.214 13.5648,5.7144 27.3048,5.7144 h 8.2548 c 9.6516,0 22.4388,-3.294 29.0304,-6.5292 1.236,-0.606 10.224,-6.2412 10.818,-6.9624 1.7076,-2.0736 2.478,-2.8284 4.1496,-4.7388 1.5144,-1.7304 1.6812,-4.0128 2.9916,-5.8992 1.8816,-22.6068 -24.3492,-30.48 -47.6244,-30.48 -12.1776,0 -25.2264,3.1656 -35.8224,9.2628 -8.6664,4.9872 -15.3588,12.1836 -14.3424,24.3924 z m 135.254,-45.72 0.6348,3.1752 c 3.3972,2.274 5.0244,7.0548 11.946,10.9128 3.5208,1.9632 12.4248,6.1236 17.2644,6.2316 l 20.9544,2.5404 h 5.7156 c 5.4312,0 14.6952,-3.372 19.4232,-4.7064 8.2116,-2.3184 9.498,-7.5312 13.596,-10.5336 0,-6.9852 1.2132,-9.822 -2.6916,-14.4528 -2.9472,-3.4944 -6.006,-5.8908 -10.2204,-8.1948 -6.8472,-3.7452 -19.3404,-7.8324 -29.6328,-7.8324 h -10.7952 c -15.96,0 -36.1944,7.05 -36.1944,22.86 z m 90.1704,12.0648 -0.636,4.4448 -1.2696,12.0648 c -2.8524,4.2612 -8.1828,10.632 -13.5672,12.468 -5.7396,1.9584 -13.4472,5.3124 -20.7228,5.3124 l -9.588,0.4536 -16.4472,-2.994 c -11.028,-0.2448 -28.9404,-12.0552 -29.2092,-24.1296 -2.1648,-3.4104 0.0276,-14.3412 -0.007,-19.0572 -0.0576,-7.6644 2.7204,-10.6056 6.51,-14.4444 5.28,-5.3508 20.2932,-10.3128 30.9612,-10.3128 h 8.8908 c 9.3348,0 27.4488,5.0976 32.91,8.9988 4.1016,2.9304 8.7372,5.1636 11.2632,9.6924 3.624,6.4968 1.0752,10.1448 0.912,17.5032 z m 23.4948,-49.53 c 0.8952,10.7544 23.6976,21.3396 34.9248,21.5904 l 14.6052,1.2696 h 10.7952 c 12.018,0 16.3032,-5.0844 23.4948,-8.8896 4.4184,-18.9672 -18.4032,-24.744 -34.2396,-27.99 -10.4892,-2.1504 -18.1392,-1.1268 -29.2632,-0.588 -9.84,0.4776 -16.0908,5.7564 -20.3172,12.0684 z m 84.4548,17.1456 -1.2696,3.81 -1.9056,8.2548 -1.2696,2.5392 c -2.1648,4.512 -2.6184,6.5544 -7.4952,9.0156 -2.4288,1.2252 -9.6372,3.8916 -12.87,4.2756 -7.0536,0.8364 -24.9828,1.8312 -29.7996,-1.2252 -6.4884,-0.54 -15.7944,-4.3428 -20.3112,-6.9948 -8.1432,-4.782 -8.8836,-5.5296 -12.9936,-13.9668 l 0.2844,-5.0736 1.2696,-13.3344 0.6348,-4.446 0.636,-3.81 c 5.5224,-8.2464 15.5724,-12.6996 29.2092,-12.6996 h 8.8908 c 12.936,0 24.948,3.9084 33.654,8.2548 4.7292,2.3616 8.7228,4.9236 11.8956,9.06 5.3304,6.9468 2.0604,8.8884 1.44,16.3404 z m -264.16,-38.1 v 4.4448 c 2.2656,1.6596 3.342,4.7268 8.1444,7.7304 3.15,1.9704 8.082,3.3816 12.1752,4.3344 l 15.24,1.9056 h 13.3344 c 3.294,0 14.8608,-2.9568 17.3796,-4.212 7.6656,-3.8208 7.5,-3.5676 11.8308,-10.3932 -0.8892,-10.68 -8.502,-13.7244 -14.8608,-15.9396 -5.1528,-1.7952 -21.6672,-4.2672 -36.6228,-2.7108 -12.3924,1.2888 -23.7156,5.3436 -26.6208,14.8404 z m 78.7392,13.3344 -0.6348,6.9852 v 2.5404 c -4.1736,7.8876 -4.5504,8.9004 -12.894,13.14 -4.3296,2.1996 -15.0384,4.6392 -21.396,4.6392 l -6.4056,0.4236 -17.0892,-2.9628 c -6.1776,-1.44 -19.6848,-7.0992 -19.6848,-13.3356 v -3.81 l -0.9564,-0.3132 -0.3144,-9.846 -0.1356,-9.9888 -49.5864,11.952 c 5.5872,0.4644 14.0196,8.7624 14.1624,15.1812 l 0.6348,4.4448 v 5.0796 16.5108 c -4.83,7.2132 -7.53,10.4568 -16.3008,14.1792 -4.2528,1.8036 -19.7688,6.1404 -24.9732,6.1404 h -2.5404 c -9.84,0 -21.5352,-1.6908 -27.9396,-5.0796 -3.372,-1.7844 -5.64,-2.1396 -8.0028,-5.3328 -2.9676,-4.0116 -2.5236,-5.3916 -4.698,-8.6376 l -1.9044,-13.3344 -0.726,-11.7288 -39.0144,9.4032 101.335,150.916 463.549,-162.56 -45.72,-21.5892 -0.6348,1.9044 c -1.47,4.704 -2.8716,10.8228 -5.0796,15.24 l -1.9056,3.1752 c -7.0956,10.596 -34.3788,8.166 -47.6244,5.0796 -5.5476,-1.2924 -15.7716,-4.5984 -20.0736,-7.2312 -3.3948,-2.0784 -14.1276,-10.6596 -11.0412,-15.6288 l 0.6348,-3.1752 c 0.6024,-3.0144 1.1496,-8.0136 2.5392,-10.794 0.2628,-11.7828 12.9936,-16.5108 24.8688,-16.7304 l -33.1236,-15.6552 -1.2696,1.2696 -0.6348,4.446 -0.6348,1.2696 v 1.2696 c -0.8016,9.6216 -6.9732,13.2684 -16.2432,14.8716 -6.2004,1.0728 -22.5936,2.892 -27.5724,-0.2664 -10.3392,-0.8604 -27.3048,-6.324 -27.3048,-17.1444 l 0.6348,-9.5256 0.4812,-4.746 -35.3256,8.514 c 6.5232,1.5192 10.866,3.6036 15.7728,6.8604 4.1436,4.428 3.876,6.4092 3.8316,16.6764 l -1.9044,14.6052 c -4.3668,2.9244 -3.4872,5.3376 -11.1912,7.8588 -2.7132,0.8892 -12.7536,3.5712 -15.4788,3.5712 -9.084,0 -25.5336,-1.008 -30.48,-4.4448 -8.802,-2.0508 -12.7632,-6.2544 -16.5108,-13.3356 v -3.174 l 0.636,-8.8908 0.2304,-6.4488 -41.5092,10.0056 c 6.5016,2.1396 8.3028,2.4108 14.0724,8.1588 5.7612,5.7396 3.0756,10.0524 3.0756,19.3992 z m 26.7492,-40.7592 c -0.2376,1.3104 -0.4764,2.6196 -0.714,3.93 3.8304,5.5116 9.0324,9.0528 16.5096,10.7952 3.4608,1.6596 15.546,3.81 20.9556,3.81 3.7656,0 18.0492,-0.8172 20.544,-1.6812 2.3076,-0.8004 6.4248,-1.8144 8.028,-2.7672 3.6144,-2.1492 3.9984,-3.3528 6.3528,-5.0772 0,-12.5316 -7.8948,-13.9884 -17.5716,-17.3532 -10.0656,-3.5016 -51.192,-7.6836 -54.1044,8.3436 z m 170.736,19.17 c 3.7452,5.9016 5.682,9.1932 12.7764,11.988 6.5892,2.5968 10.638,4.6332 18.3384,6.4272 l 23.4948,2.5392 h 6.9852 c 8.3856,0 13.944,-4.2828 19.05,-6.9852 0.7776,-7.0728 -3.0348,-12.5136 -9.6432,-16.3092 -13.0632,-7.5048 -35.592,-9.3156 -44.9664,-9.7248 -11.5644,0 -25.1796,1.7784 -26.0352,12.0648 z m -396.74,37.1508 c -0.8196,1.8216 -1.1628,4.4748 -0.7692,9.204 4.7964,5.5176 4.7628,5.3616 11.43,8.8896 l 0.6348,0.6348 c 5.3952,0.12 8.73,3.1752 16.5108,3.1752 h 12.0648 c 9.0504,0 20.5968,-2.268 26.676,-5.0736 3.6048,-1.6632 7.0596,-3.3348 9.9984,-5.8764 5.8524,-5.058 3.3888,-3.972 7.14,-9.3696 0,-5.5452 -3.2304,-10.566 -8.25,-13.3404 -13.038,-7.2072 -31.836,-7.398 -45.912,-5.088 -13.1244,2.1552 -25.248,7.3344 -29.5236,16.8444 z"
           class="fil3"
           id="_78269496"
           style="fill:#ff0101" /><path
           inkscape:connector-curvature="0"
           d="m 379.622,53.3568 c -2.6532,1.1988 -4.7856,2.8932 -5.2512,5.3916 0,6.8136 6.042,10.218 10.8696,11.9892 2.466,0.9048 17.1876,4.7952 17.7048,5.1552 l 16.5108,0.6348 c 10.6332,0.588 18.0768,-2.9316 24.1296,-6.9852 0.4932,-2.1168 0.294,-3.5208 -0.1944,-4.6236 -7.2804,-16.446 -50.7432,-17.4504 -63.7692,-11.562 z"
           class="fil3"
           id="_47303792-1"
           style="fill:#ff0101" /></g></g></g><g
     id="g4612"
     transform="translate(57.023858,59.938478)"><g
       id="Livello_x0020_1"
       transform="matrix(0.95244949,0,0,0.94558967,-74.736156,36.239623)"><metadata
         id="CorelCorpID_0Corel-Layer" /><g
         id="_76796656"><path
           d="m 374.505,99.6 69.3495,49.524 c 10.4685,3.9915 20.6985,10.272 27.3315,19.5135 L 546.498,223.242 514.6305,386.685 205.5045,521.476 83.8825,306.692 53.5015,150.133 110.854,135.61 c 12.921,-25.455 73.8345,-29.0865 88.506,-21.435 l 60.582,-14.055 c 15.495,-30.7545 98.0265,-26.664 114.563,-0.5205 z"
           class="fil0"
           id="_78231184"
           inkscape:connector-curvature="0"
           style="fill:#1f1a17" /><polygon
           points="210.62,506.156 193.382,348.102 67.4415,158.973 95.2905,302.486 "
           class="fil1"
           id="_78794960"
           style="fill:#7b0101" /><path
           d="m 118.309,161.991 2.673,17.4015 -1.8795,-0.732 c 4.305,6.4305 2.7105,10.9575 11.6325,15.354 4.9875,2.4585 13.284,6.87 20.1165,6.87 l 2.5785,-0.024 -3.393,-27.645 -2.3595,-0.906 c -13.272,0 -23.859,-7.827 -30.1635,-15.081 z"
           class="fil1"
           id="_77500208"
           inkscape:connector-curvature="0"
           style="fill:#7b0101" /><path
           d="m 350.084,207.236 c 0.2715,12.2055 16.5345,26.1825 26.1945,26.9865 l 1.587,-29.3685 c -4.749,-1.107 -11.1045,-4.755 -14.754,-7.4715 -5.217,-3.8835 -7.944,-8.976 -10.6455,-10.785 l -0.795,-3.969 z"
           class="fil1"
           id="_77621680"
           inkscape:connector-curvature="0"
           style="fill:#7b0101" /><path
           d="m 269.121,135.005 -0.7935,-11.907 0.7935,11.907 0.7935,6.3495 c 7.353,10.9785 8.8725,9.435 20.6385,15.081 v -26.988 c -2.745,-0.639 -10.5405,-4.1415 -12.5775,-5.679 -4.518,-3.408 -6.8835,-7.164 -8.8545,-8.6085 z"
           class="fil1"
           id="_78135248"
           inkscape:connector-curvature="0"
           style="fill:#7b0101" /><path
           d="m 183.396,246.923 1.5885,15.081 v 4.7625 c 1.632,7.008 7.8645,17.553 14.2875,19.05 l -1.5885,-29.3685 -0.7935,-0.7935 c -10.4715,-5.541 -8.565,-7.641 -14.2875,-15.876 z"
           class="fil1"
           id="_76234600"
           inkscape:connector-curvature="0"
           style="fill:#7b0101" /><polygon
           points="504.058,378.204 533.255,228.462 193.382,348.102 210.62,506.156 "
           class="fil2"
           id="_77301376"
           style="fill:#ad0101" /><path
           d="m 197.683,256.447 -0.7935,-0.7935 0.7935,0.7935 1.5885,29.3685 c 4.113,5.616 28.368,11.907 38.8935,11.907 h 3.174 c 28.65,0 58.9095,-11.8095 64.2945,-34.926 L 304.84,235.81 c -1.6395,2.358 -1.8465,5.211 -3.7395,7.3725 -2.091,2.388 -3.054,3.3315 -5.1885,5.925 -1.0215,1.242 -11.541,7.767 -13.5375,8.6865 -8.9655,4.1265 -23.538,8.178 -36.273,8.178 H 235.783 c -15.7245,0 -27.816,-4.083 -38.1,-9.525 z"
           class="fil2"
           id="_78258624"
           inkscape:connector-curvature="0"
           style="fill:#ad0101" /><path
           d="m 462.003,212.791 0.7935,-3.1755 V 206.44 l 0.7935,-3.174 v -11.1135 c -4.746,3.4785 -6.1455,9.3525 -15.153,12.6285 -5.406,1.9665 -15.558,5.409 -22.1235,5.658 -17.2155,0.654 -35.9805,0.396 -48.4485,-5.586 l -1.587,29.3685 c 5.145,4.473 26.463,6.351 37.305,6.351 h 3.969 c 20.5905,0 36.0075,-9.6165 44.451,-22.2255 v -2.382 z m 1.587,-11.907 0.7935,-3.174 z"
           class="fil2"
           id="_77500776"
           inkscape:connector-curvature="0"
           style="fill:#ad0101" /><path
           d="m 223.084,147.703 c -8.1255,11.694 -5.949,11.2725 -19.839,18.2625 -5.658,2.847 -21.5415,7.137 -30.168,7.137 h -18.2565 l -7.143,-0.7935 2.3595,0.906 3.393,27.645 -2.5785,0.024 21.4185,1.815 0.807,-0.2265 c 6.5055,0 25.9005,-5.421 31.218,-7.677 11.184,-4.746 14.217,-8.5275 20.376,-17.724 l 0.7935,-7.143 -1.0185,-1.026 -0.5685,-6.912 z"
           class="fil2"
           id="_78207744"
           inkscape:connector-curvature="0"
           style="fill:#ad0101" /><path
           d="m 290.553,129.447 v 26.988 l 25.3995,3.969 c 8.493,1.3335 26.3595,-2.73 31.8645,-4.6485 11.1045,-3.8655 13.932,-8.121 18.936,-17.577 l -0.6255,-11.826 0.6255,-11.9865 c -6.033,8.6805 -4.4895,7.8585 -14.79,12.993 -3.1485,1.569 -17.6055,5.2635 -21.723,5.2635 h -24.606 c -2.124,0 -12.2625,-2.5185 -15.081,-3.1755 z"
           class="fil2"
           id="_47303792"
           inkscape:connector-curvature="0"
           style="fill:#ad0101" /><path
           d="m 305.634,262.797 c -5.385,23.1165 -35.6445,34.926 -64.2945,34.926 h -3.174 c -10.5255,0 -34.7805,-6.291 -38.8935,-11.907 -6.423,-1.497 -12.6555,-12.042 -14.2875,-19.05 l -0.795,-0.7935 -0.7935,-3.969 -1.587,-15.081 -0.7935,-8.7315 v -3.1755 c 0,-24.243 36.0525,-38.1 61.9125,-38.1 h 10.3185 c 18.2655,0 34.101,6.7935 44.2455,15.2865 6.048,5.0625 8.958,10.365 8.9355,21.2265 -0.012,6.333 1.665,25.494 -0.7935,29.3685 z M 182.602,239.778 c 5.7225,8.235 3.816,10.335 14.2875,15.876 l 0.7935,0.7935 c 10.284,5.442 22.3755,9.525 38.1,9.525 h 10.3185 c 12.735,0 27.3075,-4.0515 36.273,-8.178 1.9965,-0.9195 12.516,-7.4445 13.5375,-8.6865 2.1345,-2.5935 3.0975,-3.537 5.1885,-5.925 1.893,-2.1615 2.1,-5.0145 3.7395,-7.3725 2.3505,-28.2585 -30.4365,-38.1 -59.532,-38.1 h -6.3495 c -10.281,0 -31.2645,7.4565 -38.4285,11.577 -10.8315,6.234 -19.1985,15.231 -17.928,30.4905 z m 169.863,-62.706 -0.795,3.1755 v 2.3805 l 0.795,3.969 c 2.7015,1.809 5.4285,6.9015 10.6455,10.785 3.6495,2.7165 10.005,6.3645 14.754,7.4715 12.468,5.982 31.233,6.24 48.4485,5.586 6.5655,-0.249 16.7175,-3.6915 22.1235,-5.658 9.0075,-3.276 10.407,-9.15 15.153,-12.6285 0,-8.7315 1.5165,-12.2775 -3.3645,-18.066 -3.2385,-3.84 -8.0805,-7.7955 -12.765,-10.254 -8.151,-4.2765 -25.0245,-9.78 -37.0515,-9.78 h -13.494 c -8.9595,0 -20.9745,3.1035 -27.699,5.6385 -10.2285,3.8565 -12.324,8.1555 -16.7505,17.3805 z m 16.668,-66.6645 -1.587,15.8655 -0.246,8.8875 -0.5475,3.018 c -5.004,9.456 -7.8315,13.7115 -18.936,17.577 -5.505,1.9185 -23.3715,5.982 -31.8645,4.6485 l -25.3995,-3.969 c -11.766,-5.646 -13.2855,-4.1025 -20.6385,-15.081 l -0.7935,-6.3495 -0.7935,-11.907 -0.1725,-12.447 -63.3705,14.589 c 10.314,6.0015 16.3005,8.553 19.0935,19.29 l 0.7935,5.556 0.7935,12.699 v 5.556 1.5885 l -0.7935,7.143 c -6.159,9.1965 -9.192,12.978 -20.376,17.724 -5.3175,2.256 -24.7125,7.677 -31.218,7.677 l -0.807,0.2265 -21.4185,-1.815 c -6.8325,0 -15.129,-4.4115 -20.1165,-6.87 -8.922,-4.3965 -7.3275,-8.9235 -11.6325,-15.354 l -0.7935,-5.5575 -1.5885,-11.112 c -0.2715,-3.261 -0.7935,-1.773 -0.7935,-4.7625 v -3.1755 -3.9675 l 0.339,-3.522 -48.825,12.4095 125.94,189.129 339.873,-119.64 -67.2795,-48.78 -1.5915,18.0285 -0.7935,3.174 v 2.382 l -0.7935,3.174 v 3.1755 l -0.7935,3.1755 v 3.174 2.382 c -8.4435,12.609 -23.8605,22.2255 -44.451,22.2255 h -3.969 c -10.842,0 -32.16,-1.878 -37.305,-6.351 -9.66,-0.804 -25.923,-14.781 -26.1945,-26.9865 -2.247,-3.5415 0,-21 0,-26.988 l 0.7935,-2.382 c 3.999,-17.166 25.2825,-25.3995 46.038,-25.3995 l 11.16,-0.291 c 8.52,0.5745 17.0385,2.1435 25.5585,4.392 z m -248.9,32.6085 c -0.9915,1.4445 -1.8915,3.5205 -2.7195,7.0695 v 7.143 c 6.3045,7.254 16.8915,15.081 30.1635,15.081 l 7.143,0.7935 h 18.2565 c 8.6265,0 24.51,-4.29 30.168,-7.137 13.89,-6.99 11.7135,-6.5685 19.839,-18.2625 0,-7.029 -4.1145,-11.6985 -9.897,-15.39 -9.597,-6.1245 -26.8815,-9.5985 -44.2905,-9.009 -19.731,0.669 -39.6225,6.555 -48.663,19.7115 z"
           class="fil3"
           id="_75510104"
           inkscape:connector-curvature="0"
           style="fill:#ff0101" /><path
           d="m 269.121,109.604 v 5.556 c 1.971,1.4445 4.3365,5.2005 8.8545,8.6085 2.037,1.5375 9.8325,5.04 12.5775,5.679 2.8185,0.657 12.957,3.1755 15.081,3.1755 h 24.606 c 4.1175,0 18.5745,-3.6945 21.723,-5.2635 10.3005,-5.1345 8.757,-4.3125 14.79,-12.993 0,-4.7595 -1.5105,-8.007 -3.855,-10.434 -9.0075,-9.3225 -27.6435,-12.966 -39.918,-13.425 -13.8345,-0.516 -50.6175,-0.0735 -53.859,19.0965 z"
           class="fil3"
           id="_75139072"
           inkscape:connector-curvature="0"
           style="fill:#ff0101" /></g></g></g><g
     transform="matrix(1.0666667,0,0,1.0666667,290.59677,266.54916)"
     id="g882"><path
       inkscape:connector-curvature="0"
       d="M 243.77,129.57 C 243.78,190.08 194.74,239.14 134.23,239.14 73.721,239.14 24.67,190.08 24.69,129.57 24.674,69.061 73.721,20 134.23,20 c 60.51,0 109.55,49.061 109.54,109.57 z"
       style="fill:#939dac;stroke:#000000;stroke-width:4;stroke-linecap:round;stroke-linejoin:round"
       id="path2383" /><path
       inkscape:connector-curvature="0"
       d="m 243.34,139.16 c -20.83,45.69 -66.93,77.46 -120.43,77.46 -30.331,0 -58.255,-10.21 -80.566,-27.37 19.534,30.03 53.378,49.87 91.876,49.87 57.28,0 104.28,-43.94 109.12,-99.96 z"
       style="fill:#000000;fill-opacity:0.31373004"
       id="path3353" /><path
       inkscape:connector-curvature="0"
       d="m 50.172,230.07 c -0.006,22.68 18.377,25.57 41.057,25.57 22.681,0 41.061,-2.89 41.061,-25.57 0,-22.68 -19.15,-35.2 -41.061,-41.07 -34.081,-9.13 -41.063,18.39 -41.057,41.07 z"
       style="fill:#939dac;stroke:#000000;stroke-width:4;stroke-linecap:round;stroke-linejoin:round"
       id="path3245" /><path
       inkscape:connector-curvature="0"
       d="m 123.19,242.86 c 1.64,6.13 -3.25,8.27 -9.55,9.96 -6.29,1.69 -11.61,2.27 -13.25,-3.85 -1.641,-6.13 2.13,-12.47 8.43,-14.15 6.29,-1.69 12.73,1.91 14.37,8.04 z"
       style="fill:#ffffff;stroke:#000000;stroke-width:4;stroke-linecap:round;stroke-linejoin:round"
       id="path3239" /><path
       inkscape:connector-curvature="0"
       d="m 225.27,104.57 c 0.02,47.81 -38.73,86.57 -86.54,86.57 -47.808,0 -86.559,-38.76 -86.544,-86.57 C 52.171,56.763 90.922,18 138.73,18 c 47.81,0 86.56,38.763 86.54,86.57 z"
       style="fill:#000000;fill-opacity:0.31373004"
       id="path3307" /><path
       inkscape:connector-curvature="0"
       d="m 265.51,90.103 c -8.95,33.437 -36.06,55.237 -60.55,48.677 -24.48,-6.56 -37.06,-38.991 -28.09,-72.429 8.95,-33.441 29.98,-32.537 54.46,-25.977 24.49,6.56 43.15,16.292 34.18,49.729 z"
       style="fill:#939dac;stroke:#000000;stroke-width:4;stroke-linecap:round;stroke-linejoin:round"
       id="path2400" /><path
       inkscape:connector-curvature="0"
       d="m 4.2862,90.103 c 8.9528,33.437 36.063,55.237 60.547,48.677 24.483,-6.56 37.067,-38.991 28.096,-72.429 -8.953,-33.441 -29.981,-32.537 -54.464,-25.977 -24.483,6.56 -43.146,16.292 -34.179,49.729 z"
       style="fill:#939dac;stroke:#000000;stroke-width:4;stroke-linecap:round;stroke-linejoin:round"
       id="path3218" /><path
       inkscape:connector-curvature="0"
       d="m 198.94,38.179 c -9.74,2.974 -17.48,11.084 -22.06,28.188 -8.97,33.437 3.61,65.843 28.09,72.403 2.67,0.72 5.36,1.06 8.07,1.13 6.68,-12.28 10.47,-26.38 10.46,-41.346 0.01,-23.492 -9.37,-44.777 -24.56,-60.375 z"
       style="fill:#000000;fill-opacity:0.31373004"
       id="path3309" /><path
       inkscape:connector-curvature="0"
       d="m 205.16,43.242 c -14.77,-0.154 -26.63,6.634 -32.78,29.625 -4.97,18.526 -3.34,36.723 3.28,50.403 4.97,-23.475 27.2,-52.561 60.06,-53.997 13.33,-0.582 28.81,8.047 24.32,-2.469 -4.5,-10.515 -18.42,-15.97 -33.22,-19.937 -7.65,-2.05 -14.95,-3.555 -21.66,-3.625 z"
       style="fill:#000000;fill-opacity:0.31373004"
       id="path3314" /><path
       inkscape:connector-curvature="0"
       d="M 65.15,43.242 C 79.919,43.088 91.777,49.876 97.932,72.867 102.9,91.393 101.27,109.59 94.65,123.27 89.686,99.795 67.453,70.709 34.588,69.273 21.26,68.691 5.779,77.32 10.275,66.804 14.771,56.289 28.687,50.834 43.494,46.867 51.145,44.817 58.437,43.312 65.15,43.242 Z"
       style="fill:#000000;fill-opacity:0.31373004"
       id="path3321" /><path
       inkscape:connector-curvature="0"
       d="m 220.77,88.569 c 0.02,47.811 -38.73,86.571 -86.54,86.571 -47.808,0 -86.559,-38.76 -86.544,-86.571 C 47.671,40.763 63.763,2 134.23,2 c 71.88,0 86.56,38.763 86.54,86.569 z"
       style="fill:#939dac;stroke:#000000;stroke-width:4;stroke-linecap:round;stroke-linejoin:round"
       id="path2398" /><path
       inkscape:connector-curvature="0"
       d="m 130.6,72.099 c 0,12.519 -10.14,22.67 -22.66,22.67 -12.522,0 -22.67,-10.151 -22.666,-22.67 C 85.27,59.58 95.418,49.43 107.94,49.43 c 12.52,0 22.66,10.15 22.66,22.669 z"
       style="fill:#ffffff;stroke:#000000;stroke-width:4;stroke-linecap:round;stroke-linejoin:round"
       id="path3157" /><path
       inkscape:connector-curvature="0"
       d="m 183.33,72.099 c 0.01,12.519 -10.14,22.67 -22.66,22.67 -12.52,0 -22.67,-10.151 -22.66,-22.67 C 138,59.58 148.15,49.43 160.67,49.43 c 12.52,0 22.67,10.15 22.66,22.669 z"
       style="fill:#ffffff;stroke:#000000;stroke-width:4;stroke-linecap:round;stroke-linejoin:round"
       id="path3159" /><path
       inkscape:connector-curvature="0"
       d="m 163.19,76.099 c 0,4.173 -3.38,7.557 -7.56,7.557 -4.17,0 -7.55,-3.384 -7.55,-7.557 0,-4.173 3.38,-7.556 7.55,-7.556 4.18,0 7.56,3.383 7.56,7.556 z"
       style="fill:#000000"
       id="path3161" /><path
       inkscape:connector-curvature="0"
       d="m 121.16,76.099 c 0,4.173 -3.38,7.557 -7.56,7.557 -4.17,0 -7.55,-3.384 -7.55,-7.557 0,-4.173 3.38,-7.556 7.55,-7.556 4.18,0 7.56,3.383 7.56,7.556 z"
       style="fill:#000000"
       id="path3163" /><path
       inkscape:connector-curvature="0"
       d="m 224.29,230.07 c 0,22.68 -18.38,25.57 -41.06,25.57 -22.68,0 -41.06,-2.89 -41.06,-25.57 0,-22.68 19.15,-35.2 41.06,-41.07 34.08,-9.13 41.06,18.39 41.06,41.07 z"
       style="fill:#939dac;stroke:#000000;stroke-width:4;stroke-linecap:round;stroke-linejoin:round"
       id="path3220" /><path
       inkscape:connector-curvature="0"
       d="m 104.22,193.49 c 5.62,7.36 9.07,16.56 9.07,27.91 0,26.82 -18.387,30.25 -41.066,30.25 -3.51,0 -6.905,-0.11 -10.157,-0.35 7.44,3.61 17.752,4.35 29.157,4.35 22.676,0 41.066,-2.92 41.066,-25.6 0,-18.02 -12.1,-29.61 -28.07,-36.56 z"
       style="fill:#000000;fill-opacity:0.31373004"
       id="path3297" /><path
       inkscape:connector-curvature="0"
       d="m 157.46,220.5 c 0,15.78 -12.8,28.58 -28.58,28.58 -15.79,0 -28.59,-12.8 -28.58,-28.58 -0.01,-15.79 12.79,-28.59 28.58,-28.59 15.78,0 28.58,12.8 28.58,28.59 z"
       style="fill:#939dac;stroke:#000000;stroke-width:4;stroke-linecap:round;stroke-linejoin:round"
       id="path2404" /><path
       inkscape:connector-curvature="0"
       d="m 81.746,249.5 c -1.64,6.13 -6.952,5.54 -13.248,3.85 -6.296,-1.69 -11.19,-3.83 -9.546,-9.96 1.64,-6.13 8.074,-9.73 14.37,-8.04 6.296,1.69 10.068,8.02 8.424,14.15 z"
       style="fill:#ffffff;stroke:#000000;stroke-width:4;stroke-linecap:round;stroke-linejoin:round"
       id="path3241" /><path
       inkscape:connector-curvature="0"
       d="m 219.25,72.461 c -4.93,47.579 -45.14,84.689 -94.03,84.689 -26.647,0 -50.717,-11.04 -67.903,-28.78 14.4,27.79 43.443,46.78 76.903,46.78 47.81,0 86.58,-38.79 86.57,-86.596 0,-5.504 -0.55,-10.875 -1.54,-16.093 z"
       style="fill:#000000;fill-opacity:0.31373004"
       id="path3302" /><path
       inkscape:connector-curvature="0"
       d="m 157.39,218.99 h -45.68 c 7.66,-63.28 -7.36,-94.75 -7.36,-94.75 h 60.4 c 0,0 -15.02,32.17 -7.36,94.75 z"
       style="fill:#939dac;fill-rule:evenodd"
       id="path3188" /><path
       inkscape:connector-curvature="0"
       d="m 164.75,124.24 c 0,0 -15.02,32.17 -7.36,94.75 m -45.68,0 c 7.66,-63.28 -7.36,-94.75 -7.36,-94.75"
       style="fill:none;stroke:#000000;stroke-width:4;stroke-linecap:round"
       id="path3183" /><path
       inkscape:connector-curvature="0"
       d="m 187.44,131.78 c 6.52,5.2 6.05,33.51 2.19,38.21 -3.87,4.69 -26.86,-23.58 -22.93,-32.29 4.13,-9.16 14.61,-10.82 20.74,-5.92 z"
       style="fill:#ffffff;fill-rule:evenodd;stroke:#000000;stroke-width:4;stroke-linejoin:round"
       id="path3190" /><path
       inkscape:connector-curvature="0"
       d="m 118.69,113.03 c 14.5,-14.499 31,-0.5 31,-0.5"
       style="fill:none;stroke:#000000;stroke-width:4;stroke-linecap:round"
       id="path3192" /><path
       inkscape:connector-curvature="0"
       d="m 123.66,135.53 c 9.85,-7.89 21.07,-0.27 21.07,-0.27"
       style="fill:none;stroke:#000000;stroke-width:4;stroke-linecap:round"
       id="path3194" /><path
       inkscape:connector-curvature="0"
       d="m 125.31,158.03 c 8.31,-5.68 17.76,-0.2 17.76,-0.2"
       style="fill:none;stroke:#000000;stroke-width:4;stroke-linecap:round"
       id="path3196" /><path
       inkscape:connector-curvature="0"
       d="m 80.765,131.78 c -6.52,5.2 -6.053,33.51 -2.187,38.21 3.866,4.69 26.852,-23.58 22.922,-32.29 -4.129,-9.16 -14.602,-10.82 -20.735,-5.92 z"
       style="fill:#ffffff;fill-rule:evenodd;stroke:#000000;stroke-width:4;stroke-linejoin:round"
       id="path3214" /><path
       inkscape:connector-curvature="0"
       d="m 216.19,242.86 c 1.64,6.13 -3.25,8.27 -9.55,9.96 -6.29,1.69 -11.61,2.27 -13.25,-3.85 -1.64,-6.13 2.13,-12.47 8.43,-14.15 6.29,-1.69 12.73,1.91 14.37,8.04 z"
       style="fill:#ffffff;stroke:#000000;stroke-width:4;stroke-linecap:round;stroke-linejoin:round"
       id="path3235" /><path
       inkscape:connector-curvature="0"
       d="m 174.75,249.5 c -1.64,6.13 -6.96,5.54 -13.25,3.85 -6.3,-1.69 -11.19,-3.83 -9.55,-9.96 1.64,-6.13 8.08,-9.73 14.37,-8.04 6.3,1.69 10.07,8.02 8.43,14.15 z"
       style="fill:#ffffff;stroke:#000000;stroke-width:4;stroke-linecap:round;stroke-linejoin:round"
       id="path3237" /><path
       inkscape:connector-curvature="0"
       d="m 195.03,248.49 c 0,6.34 -5.28,7.15 -11.8,7.15 -6.52,0 -11.8,-0.81 -11.8,-7.15 0,-6.35 5.28,-11.49 11.8,-11.49 6.52,0 11.8,5.14 11.8,11.49 z"
       style="fill:#ffffff;stroke:#000000;stroke-width:4;stroke-linecap:round;stroke-linejoin:round"
       id="path3224" /><path
       inkscape:connector-curvature="0"
       d="m 102.03,248.49 c 0,6.34 -5.283,7.15 -11.801,7.15 -6.518,0 -11.801,-0.81 -11.799,-7.15 -0.002,-6.35 5.281,-11.49 11.799,-11.49 6.518,0 11.801,5.14 11.801,11.49 z"
       style="fill:#ffffff;stroke:#000000;stroke-width:4;stroke-linecap:round;stroke-linejoin:round"
       id="path3243" /><path
       inkscape:connector-curvature="0"
       d="m 155.32,209.62 c -0.41,15.42 -13.04,27.81 -28.57,27.81 -11.94,0 -22.16,-7.35 -26.43,-17.75 -0.01,0.27 -0.03,0.54 -0.03,0.81 -0.01,15.79 12.8,28.6 28.59,28.6 15.79,0 28.57,-12.81 28.56,-28.6 0,-3.85 -0.74,-7.52 -2.12,-10.87 z"
       style="fill:#000000;fill-opacity:0.31373004"
       id="path3287" /><path
       inkscape:connector-curvature="0"
       d="m 201.75,187.81 c 10.56,8.16 13.35,24.67 13.34,39.25 0.01,23.47 -19,26.47 -42.47,26.47 -5.09,0 -9.94,-0.16 -14.46,-0.62 6.93,2.22 15.62,2.71 25.06,2.71 22.68,0 41.07,-2.88 41.06,-25.56 0.01,-17.77 -4.28,-38.49 -22.53,-42.25 z"
       style="fill:#000000;fill-opacity:0.31373004"
       id="path3358" /><path
       inkscape:connector-curvature="0"
       d="m 94.656,130.47 c 0.777,0.84 1.503,1.81 2.125,2.91 4.549,7.97 -13.959,36.28 -19.219,34.65 0.306,0.85 0.629,1.52 1,1.97 3.867,4.7 26.868,-23.61 22.938,-32.31 -1.567,-3.47 -4.037,-5.85 -6.844,-7.22 z"
       style="fill:#000000;fill-opacity:0.31373004;fill-rule:evenodd"
       id="path3363" /></g></svg>